<svg width="2999" height="516" viewBox="0 0 2999 516" fill="none" xmlns="http://www.w3.org/2000/svg">
<path d="M393.882 35.4893C402.511 29.777 412.899 30.0258 422.911 33.3926C432.928 36.7609 443.111 43.3989 452.096 51.418C461.102 59.4558 469.111 69.0651 474.709 78.6133C480.232 88.0341 483.733 97.9522 482.87 106.446C481.99 115.115 477.41 120.902 471.332 124.992C465.47 128.937 458.017 131.435 451.037 133.704C443.82 136.051 437.026 138.178 431.462 141.33C426.024 144.411 422.183 148.244 420.495 153.813C419.252 157.914 420.127 163.414 423.258 170.173C426.343 176.835 431.34 184.115 437.345 191.411C448.966 205.532 463.903 219.168 474.492 227.707L475.503 228.518L475.655 228.639L475.795 228.773C478.683 231.573 479.844 235.475 480.069 239.491C480.296 243.526 479.613 248.132 478.342 252.97C475.795 262.665 470.674 274.085 464.303 285.32C457.915 296.585 450.167 307.847 442.237 317.23C434.379 326.529 426.072 334.309 418.509 338.231L418.339 338.319L418.162 338.391C406.803 342.966 398.496 344.738 392.116 343.454C385.203 342.063 381.471 337.332 378.779 331.841C377.455 329.138 376.288 326.062 375.104 322.902C373.901 319.688 372.651 316.307 371.106 312.742C368.039 305.661 363.843 297.946 356.872 290.268C351.167 283.983 341.369 283.074 329.245 287.308C317.31 291.475 304.459 300.266 294.536 310.913C284.535 321.644 278.09 333.62 277.848 343.974C277.729 349.032 279.081 353.734 282.281 357.916C285.515 362.143 290.832 366.088 299.035 369.212C316.636 375.915 327.798 382.944 333.839 390.461C336.912 394.285 338.694 398.279 339.254 402.399C339.812 406.507 339.12 410.477 337.651 414.216C334.771 421.549 328.749 428.356 322.342 434.431C315.968 440.474 308.458 446.453 302.701 451.513C290.833 461.942 275.148 475.335 257.576 479.274C248.616 481.283 239.137 480.853 229.495 476.431C219.917 472.037 210.472 463.84 201.257 450.819C183.715 426.033 168.755 422.204 158.582 426.006C147.749 430.054 139.301 443.626 136.949 459.875C135.56 469.476 130.764 476.255 123.97 480.327C117.32 484.312 109.106 485.506 100.988 484.814C84.9599 483.45 67.3756 474.516 59.9307 461.262C56.7882 455.667 51.9811 449.735 47.0615 443.103C42.3234 436.715 37.5029 429.692 35.2871 422.592C32.9758 415.185 33.4457 407.446 39.5098 400.394C45.2666 393.699 55.7155 388.061 72.1094 383.335C84.5538 379.747 91.5543 374.81 95.1797 369.66C98.7327 364.613 99.4323 358.804 98.0781 352.496C95.443 340.221 85.2051 327.078 75.6357 318.087C74.22 318.145 73.0716 317.537 72.5391 317.235C71.7224 316.772 70.8226 316.1 69.8184 315.249C67.7879 313.529 64.8383 310.655 60.4971 306.011C57.8851 303.217 55.3679 300.792 52.9893 298.514C50.6427 296.266 48.3624 294.097 46.3906 291.944C42.3888 287.575 39.2421 282.835 38.6729 276.337C38.1206 270.033 40.0551 262.705 44.5801 253.194C49.1284 243.635 56.5213 231.416 67.4502 215.184C89.4717 182.476 109.141 171.09 124.435 171.161C139.738 171.232 149.41 182.926 149.727 192.757C149.824 195.785 151.325 201.625 154.443 208.218C157.521 214.726 161.957 221.496 167.521 226.534C173.058 231.547 179.514 234.682 186.827 234.493C194.159 234.304 203.093 230.756 213.533 220.889C235.109 200.496 242.208 184.393 240.786 172.317C239.389 160.448 229.467 150.509 211.794 143.095C202.663 139.264 194.87 135.344 189.298 130.81C183.647 126.211 179.88 120.636 179.762 113.592C179.647 106.785 182.975 99.541 189.166 91.5557C195.405 83.508 204.938 74.2163 218.131 63.2275C244.471 41.2869 263.261 33.4101 278.442 35.2842C293.712 37.1694 303.812 48.77 313.047 60.9385C322.388 73.2473 331.187 83.6011 339.937 89.1768C344.237 91.9176 348.307 93.3557 352.252 93.4424C356.144 93.5278 360.304 92.3074 364.856 89.0508C373.88 82.5961 376.062 74.933 378.301 65.7236C380.547 56.4816 382.83 45.6358 393.375 35.8877L393.612 35.668L393.882 35.4893Z" fill="white" stroke="white" stroke-width="8"/>
<path d="M800.8 406.4C774.933 406.4 752.133 400.533 732.4 388.8C712.667 376.8 697.2 359.867 686 338C674.8 315.867 669.2 289.333 669.2 258.4C669.2 228 674.667 201.733 685.6 179.6C696.533 157.2 711.867 140 731.6 128C751.6 115.733 774.933 109.6 801.6 109.6C837.867 109.6 865.867 118.667 885.6 136.8C905.6 154.667 918.667 179.733 924.8 212L870.4 214.8C866.933 196.133 859.467 181.467 848 170.8C836.533 160.133 821.067 154.8 801.6 154.8C777.333 154.8 758.133 164.133 744 182.8C730.133 201.467 723.2 226.667 723.2 258.4C723.2 290.4 730.267 315.6 744.4 334C758.533 352.133 777.467 361.2 801.2 361.2C822.267 361.2 838.533 355.467 850 344C861.467 332.267 868.8 316.267 872 296L926.4 298.8C920.8 332.133 907.467 358.4 886.4 377.6C865.333 396.8 836.8 406.4 800.8 406.4ZM1016.24 404.8C994.377 404.8 977.177 397.733 964.644 383.6C952.11 369.467 945.844 349.6 945.844 324V186.4H997.044V311.2C997.044 329.333 999.977 342.533 1005.84 350.8C1011.98 359.067 1021.18 363.2 1033.44 363.2C1047.04 363.2 1057.71 358.667 1065.44 349.6C1073.18 340.267 1077.04 326.8 1077.04 309.2V186.4H1128.24V400H1081.44L1080.64 365.2C1069.44 391.6 1047.98 404.8 1016.24 404.8ZM1243.44 404.8C1211.7 404.8 1187.57 398 1171.04 384.4C1154.5 370.8 1145.44 353.6 1143.84 332.8L1196.24 330.4C1198.1 341.6 1202.77 350.267 1210.24 356.4C1217.7 362.533 1228.77 365.6 1243.44 365.6C1255.44 365.6 1264.77 363.733 1271.44 360C1278.37 356.267 1281.84 350.133 1281.84 341.6C1281.84 336.8 1280.64 332.8 1278.24 329.6C1276.1 326.4 1271.57 323.6 1264.64 321.2C1257.97 318.8 1248.1 316.4 1235.04 314C1213.17 310.267 1195.97 305.733 1183.44 300.4C1170.9 294.8 1161.97 287.867 1156.64 279.6C1151.57 271.333 1149.04 261.067 1149.04 248.8C1149.04 229.067 1156.64 212.933 1171.84 200.4C1187.3 187.867 1209.84 181.6 1239.44 181.6C1268.24 181.6 1290.24 188.533 1305.44 202.4C1320.64 216 1329.7 233.067 1332.64 253.6L1280.64 256C1278.77 245.067 1274.24 236.533 1267.04 230.4C1260.1 224 1250.77 220.8 1239.04 220.8C1226.77 220.8 1217.57 223.2 1211.44 228C1205.3 232.8 1202.24 239.2 1202.24 247.2C1202.24 255.733 1205.44 262.133 1211.84 266.4C1218.24 270.4 1229.57 273.733 1245.84 276.4C1268.24 279.867 1285.84 284.4 1298.64 290C1311.7 295.333 1321.04 302.267 1326.64 310.8C1332.24 319.067 1335.04 329.067 1335.04 340.8C1335.04 361.333 1326.5 377.2 1309.44 388.4C1292.64 399.333 1270.64 404.8 1243.44 404.8ZM1429.93 400C1408.59 400 1392.86 395.2 1382.73 385.6C1372.86 375.733 1367.93 360.133 1367.93 338.8V226H1334.33V186.4H1367.93V136.4H1419.13V186.4H1475.53V226H1419.13V334C1419.13 344.133 1421.26 351.067 1425.53 354.8C1430.06 358.533 1436.73 360.4 1445.53 360.4H1475.53V400H1429.93ZM1580.73 404.8C1559.66 404.8 1541.26 400.267 1525.53 391.2C1509.79 381.867 1497.53 368.933 1488.73 352.4C1479.93 335.6 1475.53 315.867 1475.53 293.2C1475.53 270.533 1479.93 250.933 1488.73 234.4C1497.53 217.6 1509.79 204.667 1525.53 195.6C1541.26 186.267 1559.66 181.6 1580.73 181.6C1601.79 181.6 1620.19 186.267 1635.93 195.6C1651.66 204.667 1663.79 217.6 1672.33 234.4C1681.13 250.933 1685.53 270.533 1685.53 293.2C1685.53 315.867 1681.13 335.6 1672.33 352.4C1663.79 368.933 1651.66 381.867 1635.93 391.2C1620.19 400.267 1601.79 404.8 1580.73 404.8ZM1580.73 363.2C1597.26 363.2 1610.06 357.067 1619.13 344.8C1628.19 332.533 1632.73 315.333 1632.73 293.2C1632.73 271.067 1628.19 253.867 1619.13 241.6C1610.06 229.333 1597.26 223.2 1580.73 223.2C1564.19 223.2 1551.39 229.333 1542.33 241.6C1533.26 253.867 1528.73 271.067 1528.73 293.2C1528.73 315.333 1533.26 332.533 1542.33 344.8C1551.39 357.067 1564.19 363.2 1580.73 363.2ZM1702.97 400V186.4H1750.97L1752.17 228C1756.44 213.6 1762.7 203.067 1770.97 196.4C1779.24 189.733 1790.04 186.4 1803.37 186.4H1822.97V230.4H1802.97C1786.7 230.4 1774.44 234.133 1766.17 241.6C1758.17 248.8 1754.17 260.533 1754.17 276.8V400H1702.97ZM1859.01 460V420.4H1886.21C1893.15 420.4 1898.21 419.333 1901.41 417.2C1904.88 415.067 1907.68 411.467 1909.81 406.4L1915.41 391.6H1900.61L1824.61 186.4H1877.41L1931.41 343.6L1982.21 186.4H2035.41L1951.81 422.4C1947.28 435.733 1940.61 445.333 1931.81 451.2C1923.28 457.067 1911.15 460 1895.41 460H1859.01Z" fill="white"/>
<path d="M2127.27 400V116H2215.27C2259 116 2292.6 128.4 2316.07 153.2C2339.8 177.733 2351.67 212.8 2351.67 258.4C2351.67 303.733 2340.07 338.667 2316.87 363.2C2293.67 387.733 2260.6 400 2217.67 400H2127.27ZM2161.67 366.4H2215.27C2282.2 366.4 2315.67 330.4 2315.67 258.4C2315.67 185.867 2282.2 149.6 2215.27 149.6H2161.67V366.4ZM2463.33 404.8C2443.86 404.8 2426.79 400.267 2412.13 391.2C2397.46 382.133 2386.13 369.333 2378.13 352.8C2370.13 336 2366.13 316.4 2366.13 294C2366.13 271.333 2370.13 251.733 2378.13 235.2C2386.13 218.667 2397.46 205.867 2412.13 196.8C2426.79 187.733 2443.86 183.2 2463.33 183.2C2482.79 183.2 2499.73 187.733 2514.13 196.8C2528.79 205.867 2540.13 218.667 2548.13 235.2C2556.13 251.733 2560.13 271.333 2560.13 294C2560.13 316.4 2556.13 336 2548.13 352.8C2540.13 369.333 2528.79 382.133 2514.13 391.2C2499.73 400.267 2482.79 404.8 2463.33 404.8ZM2463.33 372.8C2482.79 372.8 2497.86 365.867 2508.53 352C2519.46 337.867 2524.93 318.533 2524.93 294C2524.93 269.467 2519.46 250.267 2508.53 236.4C2497.86 222.267 2482.79 215.2 2463.33 215.2C2443.86 215.2 2428.66 222.267 2417.73 236.4C2406.79 250.267 2401.33 269.467 2401.33 294C2401.33 318.533 2406.79 337.867 2417.73 352C2428.66 365.867 2443.86 372.8 2463.33 372.8ZM2669.02 404.8C2649.28 404.8 2632.08 400.267 2617.42 391.2C2603.02 382.133 2591.82 369.333 2583.82 352.8C2575.82 336 2571.82 316.4 2571.82 294C2571.82 271.6 2575.82 252.133 2583.82 235.6C2591.82 219.067 2603.02 206.267 2617.42 197.2C2632.08 187.867 2649.28 183.2 2669.02 183.2C2693.55 183.2 2713.82 189.6 2729.82 202.4C2745.82 214.933 2755.55 233.067 2759.02 256.8L2723.82 259.2C2721.42 245.067 2715.28 234.267 2705.42 226.8C2695.55 219.067 2683.42 215.2 2669.02 215.2C2649.55 215.2 2634.35 222.267 2623.42 236.4C2612.48 250.267 2607.02 269.467 2607.02 294C2607.02 318.533 2612.48 337.867 2623.42 352C2634.35 365.867 2649.55 372.8 2669.02 372.8C2683.42 372.8 2695.55 368.8 2705.42 360.8C2715.28 352.8 2721.42 340.8 2723.82 324.8L2759.02 327.2C2755.55 350.667 2745.82 369.467 2729.82 383.6C2713.82 397.733 2693.55 404.8 2669.02 404.8ZM2858.17 404.8C2829.9 404.8 2807.9 398.133 2792.17 384.8C2776.7 371.2 2768.17 354 2766.57 333.2L2801.77 330.8C2803.9 343.6 2809.37 353.867 2818.17 361.6C2826.97 369.067 2840.3 372.8 2858.17 372.8C2872.57 372.8 2884.03 370.533 2892.57 366C2901.37 361.2 2905.77 353.6 2905.77 343.2C2905.77 337.6 2904.43 332.933 2901.77 329.2C2899.1 325.467 2893.9 322.267 2886.17 319.6C2878.43 316.667 2866.97 313.867 2851.77 311.2C2831.5 307.467 2815.5 302.933 2803.77 297.6C2792.3 292 2784.03 285.2 2778.97 277.2C2774.17 268.933 2771.77 259.2 2771.77 248C2771.77 229.067 2778.7 213.6 2792.57 201.6C2806.43 189.333 2826.17 183.2 2851.77 183.2C2869.1 183.2 2883.63 186.4 2895.37 192.8C2907.37 198.933 2916.7 207.2 2923.37 217.6C2930.3 227.733 2934.83 238.933 2936.97 251.2L2901.77 253.6C2899.37 242.4 2893.9 233.2 2885.37 226C2877.1 218.8 2865.77 215.2 2851.37 215.2C2836.17 215.2 2824.97 218.133 2817.77 224C2810.57 229.867 2806.97 237.333 2806.97 246.4C2806.97 256.8 2810.83 264.533 2818.57 269.6C2826.3 274.4 2839.5 278.4 2858.17 281.6C2879.77 285.333 2896.57 289.867 2908.57 295.2C2920.57 300.533 2928.97 307.067 2933.77 314.8C2938.57 322.533 2940.97 332 2940.97 343.2C2940.97 356.267 2937.23 367.467 2929.77 376.8C2922.57 385.867 2912.7 392.8 2900.17 397.6C2887.9 402.4 2873.9 404.8 2858.17 404.8Z" fill="#CACACA"/>
</svg>
