<svg width="2068" height="516" viewBox="0 0 2068 516" fill="none" xmlns="http://www.w3.org/2000/svg">
<path d="M393.882 35.4893C402.511 29.777 412.899 30.0258 422.911 33.3926C432.928 36.7609 443.111 43.3989 452.096 51.418C461.102 59.4558 469.111 69.0651 474.709 78.6133C480.232 88.0341 483.733 97.9522 482.87 106.446C481.99 115.115 477.41 120.902 471.332 124.992C465.47 128.937 458.017 131.435 451.037 133.704C443.82 136.051 437.026 138.178 431.462 141.33C426.024 144.411 422.183 148.244 420.495 153.813C419.252 157.914 420.127 163.414 423.258 170.173C426.343 176.835 431.34 184.115 437.345 191.411C448.966 205.532 463.903 219.168 474.492 227.707L475.503 228.518L475.655 228.639L475.795 228.773C478.683 231.573 479.844 235.475 480.069 239.491C480.296 243.526 479.613 248.132 478.342 252.97C475.795 262.665 470.674 274.085 464.303 285.32C457.915 296.585 450.167 307.847 442.237 317.23C434.379 326.529 426.072 334.309 418.509 338.231L418.339 338.319L418.162 338.391C406.803 342.966 398.496 344.738 392.116 343.454C385.203 342.063 381.471 337.332 378.779 331.841C377.455 329.138 376.288 326.062 375.104 322.902C373.901 319.688 372.651 316.307 371.106 312.742C368.039 305.661 363.843 297.946 356.872 290.268C351.167 283.983 341.369 283.074 329.245 287.308C317.31 291.475 304.459 300.266 294.536 310.913C284.535 321.644 278.09 333.62 277.848 343.974C277.729 349.032 279.081 353.734 282.281 357.916C285.515 362.143 290.832 366.088 299.035 369.212C316.636 375.915 327.798 382.944 333.839 390.461C336.912 394.285 338.694 398.279 339.254 402.399C339.812 406.507 339.12 410.477 337.651 414.216C334.771 421.549 328.749 428.356 322.342 434.431C315.968 440.474 308.458 446.453 302.701 451.513C290.833 461.942 275.148 475.335 257.576 479.274C248.616 481.283 239.137 480.853 229.495 476.431C219.917 472.037 210.472 463.84 201.257 450.819C183.715 426.033 168.755 422.204 158.582 426.006C147.749 430.054 139.301 443.626 136.949 459.875C135.56 469.476 130.764 476.255 123.97 480.327C117.32 484.312 109.106 485.506 100.988 484.814C84.9599 483.45 67.3756 474.516 59.9307 461.262C56.7882 455.667 51.9811 449.735 47.0615 443.103C42.3234 436.715 37.5029 429.692 35.2871 422.592C32.9758 415.185 33.4457 407.446 39.5098 400.394C45.2666 393.699 55.7155 388.061 72.1094 383.335C84.5538 379.747 91.5543 374.81 95.1797 369.66C98.7327 364.613 99.4323 358.804 98.0781 352.496C95.443 340.221 85.2051 327.078 75.6357 318.087C74.22 318.145 73.0716 317.537 72.5391 317.235C71.7224 316.772 70.8226 316.1 69.8184 315.249C67.7879 313.529 64.8383 310.655 60.4971 306.011C57.8851 303.217 55.3679 300.792 52.9893 298.514C50.6427 296.266 48.3624 294.097 46.3906 291.944C42.3888 287.575 39.2421 282.835 38.6729 276.337C38.1206 270.033 40.0551 262.705 44.5801 253.194C49.1284 243.635 56.5213 231.416 67.4502 215.184C89.4717 182.476 109.141 171.09 124.435 171.161C139.738 171.232 149.41 182.926 149.727 192.757C149.824 195.785 151.325 201.625 154.443 208.218C157.521 214.726 161.957 221.496 167.521 226.534C173.058 231.547 179.514 234.682 186.827 234.493C194.159 234.304 203.093 230.756 213.533 220.889C235.109 200.496 242.208 184.393 240.786 172.317C239.389 160.448 229.467 150.509 211.794 143.095C202.663 139.264 194.87 135.344 189.298 130.81C183.647 126.211 179.88 120.636 179.762 113.592C179.647 106.785 182.975 99.541 189.166 91.5557C195.405 83.508 204.938 74.2163 218.131 63.2275C244.471 41.2869 263.261 33.4101 278.442 35.2842C293.712 37.1694 303.812 48.77 313.047 60.9385C322.388 73.2473 331.187 83.6011 339.937 89.1768C344.237 91.9176 348.307 93.3557 352.252 93.4424C356.144 93.5278 360.304 92.3074 364.856 89.0508C373.88 82.5961 376.062 74.933 378.301 65.7236C380.547 56.4816 382.83 45.6358 393.375 35.8877L393.612 35.668L393.882 35.4893Z" fill="black" stroke="black" stroke-width="8"/>
<path d="M800.8 406.4C774.933 406.4 752.133 400.533 732.4 388.8C712.667 376.8 697.2 359.867 686 338C674.8 315.867 669.2 289.333 669.2 258.4C669.2 228 674.667 201.733 685.6 179.6C696.533 157.2 711.867 140 731.6 128C751.6 115.733 774.933 109.6 801.6 109.6C837.867 109.6 865.867 118.667 885.6 136.8C905.6 154.667 918.667 179.733 924.8 212L870.4 214.8C866.933 196.133 859.467 181.467 848 170.8C836.533 160.133 821.067 154.8 801.6 154.8C777.333 154.8 758.133 164.133 744 182.8C730.133 201.467 723.2 226.667 723.2 258.4C723.2 290.4 730.267 315.6 744.4 334C758.533 352.133 777.467 361.2 801.2 361.2C822.267 361.2 838.533 355.467 850 344C861.467 332.267 868.8 316.267 872 296L926.4 298.8C920.8 332.133 907.467 358.4 886.4 377.6C865.333 396.8 836.8 406.4 800.8 406.4ZM1020.24 404.8C998.377 404.8 981.177 397.733 968.644 383.6C956.11 369.467 949.844 349.6 949.844 324V186.4H1001.04V311.2C1001.04 329.333 1003.98 342.533 1009.84 350.8C1015.98 359.067 1025.18 363.2 1037.44 363.2C1051.04 363.2 1061.71 358.667 1069.44 349.6C1077.18 340.267 1081.04 326.8 1081.04 309.2V186.4H1132.24V400H1085.44L1084.64 365.2C1073.44 391.6 1051.98 404.8 1020.24 404.8ZM1251.44 404.8C1219.7 404.8 1195.57 398 1179.04 384.4C1162.5 370.8 1153.44 353.6 1151.84 332.8L1204.24 330.4C1206.1 341.6 1210.77 350.267 1218.24 356.4C1225.7 362.533 1236.77 365.6 1251.44 365.6C1263.44 365.6 1272.77 363.733 1279.44 360C1286.37 356.267 1289.84 350.133 1289.84 341.6C1289.84 336.8 1288.64 332.8 1286.24 329.6C1284.1 326.4 1279.57 323.6 1272.64 321.2C1265.97 318.8 1256.1 316.4 1243.04 314C1221.17 310.267 1203.97 305.733 1191.44 300.4C1178.9 294.8 1169.97 287.867 1164.64 279.6C1159.57 271.333 1157.04 261.067 1157.04 248.8C1157.04 229.067 1164.64 212.933 1179.84 200.4C1195.3 187.867 1217.84 181.6 1247.44 181.6C1276.24 181.6 1298.24 188.533 1313.44 202.4C1328.64 216 1337.7 233.067 1340.64 253.6L1288.64 256C1286.77 245.067 1282.24 236.533 1275.04 230.4C1268.1 224 1258.77 220.8 1247.04 220.8C1234.77 220.8 1225.57 223.2 1219.44 228C1213.3 232.8 1210.24 239.2 1210.24 247.2C1210.24 255.733 1213.44 262.133 1219.84 266.4C1226.24 270.4 1237.57 273.733 1253.84 276.4C1276.24 279.867 1293.84 284.4 1306.64 290C1319.7 295.333 1329.04 302.267 1334.64 310.8C1340.24 319.067 1343.04 329.067 1343.04 340.8C1343.04 361.333 1334.5 377.2 1317.44 388.4C1300.64 399.333 1278.64 404.8 1251.44 404.8ZM1441.93 400C1420.59 400 1404.86 395.2 1394.73 385.6C1384.86 375.733 1379.93 360.133 1379.93 338.8V226H1346.33V186.4H1379.93V136.4H1431.13V186.4H1487.53V226H1431.13V334C1431.13 344.133 1433.26 351.067 1437.53 354.8C1442.06 358.533 1448.73 360.4 1457.53 360.4H1487.53V400H1441.93ZM1596.73 404.8C1575.66 404.8 1557.26 400.267 1541.53 391.2C1525.79 381.867 1513.53 368.933 1504.73 352.4C1495.93 335.6 1491.53 315.867 1491.53 293.2C1491.53 270.533 1495.93 250.933 1504.73 234.4C1513.53 217.6 1525.79 204.667 1541.53 195.6C1557.26 186.267 1575.66 181.6 1596.73 181.6C1617.79 181.6 1636.19 186.267 1651.93 195.6C1667.66 204.667 1679.79 217.6 1688.33 234.4C1697.13 250.933 1701.53 270.533 1701.53 293.2C1701.53 315.867 1697.13 335.6 1688.33 352.4C1679.79 368.933 1667.66 381.867 1651.93 391.2C1636.19 400.267 1617.79 404.8 1596.73 404.8ZM1596.73 363.2C1613.26 363.2 1626.06 357.067 1635.13 344.8C1644.19 332.533 1648.73 315.333 1648.73 293.2C1648.73 271.067 1644.19 253.867 1635.13 241.6C1626.06 229.333 1613.26 223.2 1596.73 223.2C1580.19 223.2 1567.39 229.333 1558.33 241.6C1549.26 253.867 1544.73 271.067 1544.73 293.2C1544.73 315.333 1549.26 332.533 1558.33 344.8C1567.39 357.067 1580.19 363.2 1596.73 363.2ZM1722.97 400V186.4H1770.97L1772.17 228C1776.44 213.6 1782.7 203.067 1790.97 196.4C1799.24 189.733 1810.04 186.4 1823.37 186.4H1842.97V230.4H1822.97C1806.7 230.4 1794.44 234.133 1786.17 241.6C1778.17 248.8 1774.17 260.533 1774.17 276.8V400H1722.97ZM1883.01 460V420.4H1910.21C1917.15 420.4 1922.21 419.333 1925.41 417.2C1928.88 415.067 1931.68 411.467 1933.81 406.4L1939.41 391.6H1924.61L1848.61 186.4H1901.41L1955.41 343.6L2006.21 186.4H2059.41L1975.81 422.4C1971.28 435.733 1964.61 445.333 1955.81 451.2C1947.28 457.067 1935.15 460 1919.41 460H1883.01Z" fill="black"/>
</svg>
