<svg width="516" height="516" viewBox="0 0 516 516" fill="none" xmlns="http://www.w3.org/2000/svg">
<path d="M392.227 32.9883C401.908 26.5796 413.356 27.0152 423.867 30.5498C434.386 34.0871 444.915 40.9887 454.094 49.1807C463.309 57.4051 471.526 67.2526 477.297 77.0967C482.938 86.7182 486.813 97.3131 485.854 106.75C484.865 116.493 479.653 123.009 473.007 127.481C466.738 131.7 458.873 134.31 451.964 136.557C444.64 138.938 438.181 140.971 432.94 143.94C427.921 146.785 424.759 150.09 423.366 154.684C422.44 157.738 422.966 162.404 425.98 168.912C428.916 175.249 433.738 182.307 439.661 189.505C451.116 203.425 465.893 216.918 476.372 225.369L477.372 226.171L477.639 226.383L477.883 226.619C481.514 230.138 482.816 234.891 483.064 239.323C483.315 243.788 482.557 248.73 481.243 253.732C478.606 263.77 473.355 275.44 466.913 286.8C460.442 298.211 452.589 309.629 444.528 319.167C436.593 328.557 427.98 336.699 419.89 340.895L419.593 341.049L419.282 341.174C407.855 345.776 398.831 347.865 391.524 346.396C383.285 344.738 378.958 339.022 376.086 333.161C374.687 330.306 373.471 327.093 372.295 323.954C371.084 320.721 369.863 317.416 368.354 313.935C365.375 307.056 361.338 299.65 354.651 292.284C350.179 287.357 341.967 286.043 330.234 290.14C318.833 294.121 306.379 302.606 296.73 312.958C286.945 323.458 281.065 334.757 280.848 344.044C280.744 348.48 281.915 352.5 284.664 356.093C287.473 359.764 292.269 363.425 300.103 366.408C317.859 373.17 329.63 380.435 336.177 388.581C339.543 392.77 341.584 397.262 342.227 401.995C342.867 406.706 342.06 411.196 340.443 415.312C337.308 423.293 330.871 430.478 324.406 436.607C318 442.681 310.255 448.868 304.682 453.767C292.916 464.106 276.674 478.067 258.232 482.201C248.707 484.337 238.549 483.884 228.244 479.157C218.051 474.482 208.229 465.864 198.809 452.553C181.522 428.127 167.835 425.75 159.632 428.816C150.275 432.314 142.196 444.564 139.918 460.305C138.405 470.759 133.114 478.346 125.512 482.901C118.165 487.304 109.268 488.53 100.734 487.804C84.0297 486.381 65.3834 477.094 57.3154 462.73C54.2965 457.356 49.696 451.689 44.6523 444.89C39.9262 438.518 34.8077 431.128 32.4229 423.486C29.8706 415.308 30.36 406.432 37.2344 398.438C43.5711 391.068 54.7149 385.227 71.2783 380.452C83.3551 376.971 89.6384 372.32 92.7266 367.934C95.6882 363.726 96.3684 358.823 95.1455 353.126C92.7671 342.047 83.5092 329.799 74.3604 321.014C72.7377 320.786 71.5327 320.114 71.0586 319.845C70.0063 319.248 68.9434 318.44 67.8799 317.539C65.714 315.705 62.6688 312.728 58.3047 308.06C55.7549 305.332 53.2918 302.958 50.9141 300.681C48.5922 298.456 46.2306 296.211 44.1777 293.97C39.9708 289.376 36.3352 284.037 35.6836 276.599C35.0617 269.499 37.2652 261.586 41.8711 251.905C46.5179 242.139 54.0113 229.771 64.9609 213.508C87.1473 180.556 107.607 168.083 124.449 168.161C141.309 168.239 152.355 181.159 152.726 192.66C152.804 195.107 154.122 200.521 157.155 206.935C160.119 213.2 164.344 219.611 169.535 224.311C174.677 228.966 180.417 231.657 186.75 231.494C193.115 231.33 201.379 228.249 211.473 218.709C232.878 198.477 239.055 183.268 237.807 172.668C236.601 162.431 227.966 153.132 210.634 145.861C201.452 142.01 193.326 137.955 187.404 133.137C181.345 128.206 176.9 121.876 176.762 113.643C176.63 105.825 180.446 97.908 186.795 89.7178C193.229 81.4185 202.954 71.9647 216.211 60.9219C242.648 38.9007 262.303 30.2685 278.811 32.3066C295.473 34.3638 306.257 47.0296 315.437 59.125C324.802 71.4659 333.311 81.3968 341.549 86.6465C345.539 89.189 349.077 90.3711 352.317 90.4424C355.465 90.5115 359.002 89.5508 363.111 86.6113C371.186 80.8354 373.168 74.1404 375.386 65.0156C377.618 55.8336 380.05 44.1202 391.339 33.6846L391.754 33.3008L392.227 32.9883Z" fill="url(#paint0_linear_841_2)" stroke="#D4D4D4" stroke-width="14"/>
<defs>
<linearGradient id="paint0_linear_841_2" x1="258.5" y1="35" x2="258.5" y2="481" gradientUnits="userSpaceOnUse">
<stop stop-color="#3F3F3F"/>
<stop offset="1"/>
</linearGradient>
</defs>
</svg>
